<?xml version="1.0" encoding="utf-8"?>
<svg version="1.1"  width="32" height="32" viewBox="0 0 32 32" xmlns="http://www.w3.org/2000/svg">
  <path stroke="white" fill-opacity="0" d="M 16 0 C 7.164 0 0 7.163 0 16 C 0 24.836 7.164 31.999 16 31.999 C 24.836 31.999 32 24.836 32 16 C 32 7.163 24.836 0 16 0 Z M 16 29.945 C 13.486 29.945 11.448 28.266 11.448 26.195 L 20.553 26.195 C 20.553 28.265 18.514 29.945 16 29.945 Z M 23.519 24.952 L 8.48 24.952 L 8.48 22.225 L 23.52 22.225 L 23.52 24.952 Z M 23.465 20.822 L 8.523 20.822 C 8.473 20.765 8.423 20.708 8.375 20.65 C 6.835 18.781 6.473 17.805 6.121 16.81 C 6.115 16.778 7.987 17.193 9.315 17.492 C 9.315 17.492 9.998 17.65 10.997 17.832 C 10.038 16.708 9.469 15.278 9.469 13.818 C 9.469 10.61 11.929 7.808 11.041 5.542 C 11.905 5.613 12.829 7.365 12.891 10.105 C 13.809 8.837 14.194 6.519 14.194 5.098 C 14.194 3.627 15.163 1.919 16.133 1.86 C 15.268 3.285 16.356 4.506 17.324 7.535 C 17.687 8.673 17.64 10.588 17.92 11.802 C 18.013 9.28 18.447 5.6 20.047 4.329 C 19.341 5.929 20.152 7.932 20.706 8.894 C 21.6 10.447 22.142 11.624 22.142 13.849 C 22.142 15.341 21.591 16.746 20.662 17.844 C 21.719 17.645 22.448 17.467 22.448 17.467 L 25.879 16.797 C 25.88 16.797 25.381 18.847 23.465 20.822 Z"/>
</svg>